<svg width="2048" height="2048" viewBox="0 0 512 512" fill="none" xmlns="http://www.w3.org/2000/svg"><path d="M461.442 345.4a37.94 37.94 0 0 0 -5.15 -11.384c0.5 -1.834 0.882 -3.698 1.136 -5.582 1.658 -11.952 -2.486 -22.894 -10.294 -31.36 -4.23 -4.624 -8.764 -7.678 -13.566 -9.552a181.204 181.204 0 0 0 4.754 -41.136c0 -6.326 -0.358 -12.522 -0.958 -18.626a211.76 211.76 0 0 0 -1.134 -9.12 181.97 181.97 0 0 0 -6.102 -26.42 182.44 182.44 0 0 0 -6.108 -16.748 183.86 183.86 0 0 0 -12.082 -23.508 162.738 162.738 0 0 0 -9.814 -14.524 137.958 137.958 0 0 0 -5.408 -6.892 181.07 181.07 0 0 0 -18.066 -18.972 139.876 139.876 0 0 0 -6.63 -5.724 163.52 163.52 0 0 0 -6.848 -5.408 192.112 192.112 0 0 0 -14.524 -9.814c-27.562 -16.74 -59.884 -26.34 -94.43 -26.34 -100.584 0 -182.104 81.524 -182.104 182.102 -0.004 14.024 1.62 28 4.84 41.648 -4.32 1.876 -8.46 4.8 -12.3 9.03 -7.806 8.462 -11.952 19.364 -10.294 31.316 0.252 1.898 0.63 3.778 1.134 5.626a38.012 38.012 0 0 0 -5.146 11.388c-2.4 9.122 -1.61 17.348 1.44 24.556 -3.316 9.42 -2.488 19.452 1.83 28.174 3.14 6.37 7.634 11.298 13.174 15.702 6.586 5.236 14.83 9.684 24.774 13.952 11.864 5.06 26.346 9.814 32.932 11.558 17.012 4.404 33.324 7.196 49.856 7.332 23.554 0.218 43.838 -5.32 58.36 -19.494a176.04 176.04 0 0 0 21.504 1.308 187.504 187.504 0 0 0 22.716 -1.43c14.488 14.264 34.85 19.852 58.49 19.628 16.53 -0.132 32.842 -2.924 49.81 -7.334 6.63 -1.744 21.106 -6.498 32.976 -11.558 9.944 -4.274 18.188 -8.722 24.818 -13.95 5.498 -4.406 9.988 -9.332 13.13 -15.702 4.362 -8.724 5.146 -18.756 1.876 -28.176 3.02 -7.208 3.806 -15.452 1.408 -24.566Zm-16.88 23.946c3.342 6.342 3.556 13.508 0.608 20.182 -4.472 10.114 -15.58 18.082 -37.154 26.636 -13.416 5.32 -25.7 8.722 -25.808 8.752 -17.744 4.602 -33.792 6.94 -47.684 6.94 -23.004 0 -40.122 -6.348 -50.978 -18.884a170.922 170.922 0 0 1 -55.494 0.316c-10.87 12.328 -27.89 18.568 -50.7 18.568 -13.894 0 -29.94 -2.338 -47.686 -6.94 -0.108 -0.03 -12.388 -3.432 -25.808 -8.752 -21.572 -8.554 -32.684 -16.516 -37.154 -26.636 -2.948 -6.674 -2.734 -13.84 0.608 -20.182 0.308 -0.59 0.64 -1.164 0.994 -1.72a25.606 25.606 0 0 1 -3.456 -20.682c1.328 -5.046 4.07 -9.242 7.794 -12.256a25.5 25.5 0 0 1 -3.46 -9.644c-1.072 -7.428 1.394 -14.844 6.94 -20.892 4.32 -4.706 10.426 -7.296 17.186 -7.296h0.18a168.9 168.9 0 0 1 -7.664 -50.47c0 -93.342 75.672 -169.02 169.028 -169.02 93.354 0 169.026 75.67 169.026 169.02a168.796 168.796 0 0 1 -7.718 50.598c0.816 -0.08 1.616 -0.12 2.402 -0.122 6.76 0 12.868 2.59 17.184 7.296 5.546 6.042 8.014 13.464 6.94 20.892a25.514 25.514 0 0 1 -3.458 9.644c3.724 3.014 6.468 7.21 7.794 12.256a25.606 25.606 0 0 1 -3.456 20.682c0.354 0.55 0.69 1.124 0.994 1.714Z" fill="white"/><path d="M443.568 367.632a25.596 25.596 0 0 0 3.456 -20.682c-1.328 -5.046 -4.072 -9.242 -7.794 -12.256a25.48 25.48 0 0 0 3.458 -9.644c1.074 -7.428 -1.392 -14.844 -6.94 -20.892 -4.316 -4.706 -10.424 -7.296 -17.184 -7.296 -0.786 0 -1.586 0.042 -2.402 0.122a168.83 168.83 0 0 0 7.704 -50.594c0 -93.344 -75.672 -169.02 -169.018 -169.02 -93.348 0 -169.028 75.668 -169.028 169.02a168.92 168.92 0 0 0 7.664 50.47h-0.18c-6.76 0 -12.866 2.588 -17.184 7.294 -5.546 6.042 -8.014 13.466 -6.94 20.892a25.524 25.524 0 0 0 3.46 9.646c-3.724 3.012 -6.468 7.208 -7.796 12.254a25.616 25.616 0 0 0 3.46 20.686c-0.356 0.556 -0.684 1.13 -0.994 1.72 -3.34 6.342 -3.556 13.508 -0.606 20.182 4.472 10.114 15.58 18.082 37.154 26.636 13.414 5.32 25.7 8.722 25.808 8.752 17.744 4.602 33.792 6.94 47.684 6.94 22.812 0 39.832 -6.24 50.702 -18.568a170.98 170.98 0 0 0 55.494 -0.316c10.856 12.536 27.974 18.884 50.978 18.884 13.892 0 29.94 -2.338 47.682 -6.94 0.11 -0.03 12.39 -3.432 25.81 -8.752 21.574 -8.554 32.684 -16.522 37.154 -26.636 2.948 -6.674 2.734 -13.84 -0.608 -20.182 -0.304 -0.594 -0.64 -1.17 -0.994 -1.72Zm-223.294 26.362a69.318 69.318 0 0 1 -3.004 4.788c-2.81 4.114 -6.506 7.258 -10.796 9.594 -8.2 4.472 -18.58 6.034 -29.124 6.034 -16.658 0 -33.734 -3.898 -43.304 -6.38 -0.472 -0.122 -58.668 -16.56 -51.3 -30.552 1.24 -2.354 3.28 -3.294 5.85 -3.294 10.374 0 29.264 15.448 37.38 15.448 1.816 0 3.096 -0.772 3.618 -2.656 3.46 -12.408 -52.586 -17.624 -47.866 -35.592 0.832 -3.18 3.092 -4.472 6.268 -4.472 13.716 -0.002 44.5 24.12 50.938 24.12 0.494 0 0.848 -0.146 1.04 -0.45 0.028 -0.046 0.056 -0.09 0.082 -0.138 3.022 -4.99 1.288 -8.618 -19.414 -21.298l-1.988 -1.21c-22.782 -13.788 -38.772 -22.086 -29.68 -31.986 1.048 -1.142 2.532 -1.648 4.334 -1.648 2.136 0 4.72 0.714 7.57 1.914 12.032 5.074 28.708 18.912 35.674 24.946a292 292 0 0 1 3.266 2.882s8.82 9.172 14.152 9.172c1.228 0 2.27 -0.484 2.976 -1.68 3.782 -6.376 -35.126 -35.86 -37.32 -48.026 -1.488 -8.242 1.044 -12.418 5.724 -12.418 2.226 0 4.94 0.948 7.94 2.85 9.3 5.902 27.256 36.758 33.83 48.762 2.204 4.022 5.966 5.722 9.356 5.722 6.726 0 11.984 -6.686 0.616 -15.182 -17.086 -12.784 -11.09 -33.68 -2.936 -34.966 0.348 -0.056 0.7 -0.084 1.05 -0.084 7.416 0 10.686 12.778 10.686 12.778s9.588 24.076 26.058 40.534c14.944 14.938 17.032 27.196 8.324 42.488Zm53.258 2.82 -0.854 0.102 -1.456 0.166c-0.766 0.08 -1.534 0.156 -2.304 0.226l-0.75 0.068 -0.686 0.058 -0.972 0.078 -1.074 0.078 -1.072 0.07 -0.238 0.016c-0.28 0.016 -0.56 0.034 -0.844 0.048l-0.358 0.02c-0.332 0.018 -0.664 0.034 -1 0.048l-1.162 0.05 -1.054 0.036 -0.704 0.02h-0.358c-0.22 0 -0.438 0.012 -0.658 0.014h-0.348c-0.22 0 -0.438 0 -0.658 0.01l-0.896 0.012h-1.25c-0.982 0 -1.962 -0.01 -2.938 -0.03l-0.792 -0.018c-0.226 0 -0.452 -0.01 -0.674 -0.018l-0.84 -0.024 -1.042 -0.04 -0.94 -0.042 -0.242 -0.01 -0.894 -0.046c-0.25 -0.014 -0.496 -0.026 -0.744 -0.044l-0.578 -0.034a159.28 159.28 0 0 1 -2.178 -0.152l-0.76 -0.062c-0.32 -0.024 -0.64 -0.054 -0.958 -0.082 -0.374 -0.032 -0.748 -0.068 -1.122 -0.104a119.374 119.374 0 0 1 -1.878 -0.19h-0.03c9.14 -20.39 4.518 -39.434 -13.952 -57.888 -12.114 -12.098 -20.172 -29.962 -21.844 -33.884 -3.384 -11.61 -12.34 -24.516 -27.214 -24.516 -1.258 0 -2.514 0.1 -3.756 0.296 -6.516 1.026 -12.212 4.776 -16.276 10.42 -4.392 -5.462 -8.66 -9.804 -12.52 -12.256 -5.82 -3.69 -11.628 -5.562 -17.286 -5.562 -7.062 0 -13.374 2.9 -17.774 8.16l-0.112 0.134c-0.084 -0.346 -0.164 -0.692 -0.246 -1.04l-0.01 -0.046a147.37 147.37 0 0 1 -2.108 -10.824c0 -0.024 0 -0.048 -0.012 -0.072 -0.044 -0.274 -0.084 -0.55 -0.126 -0.824 -0.124 -0.812 -0.24 -1.626 -0.346 -2.44 -0.048 -0.37 -0.1 -0.74 -0.146 -1.11l-0.136 -1.11c-0.044 -0.37 -0.08 -0.706 -0.12 -1.058l-0.012 -0.088c-0.16 -1.44 -0.3 -2.88 -0.42 -4.324l-0.044 -0.554 -0.07 -0.944c-0.02 -0.258 -0.04 -0.518 -0.054 -0.778 0 -0.062 -0.01 -0.122 -0.012 -0.18a104.952 104.952 0 0 1 -0.13 -2.176c-0.02 -0.378 -0.04 -0.754 -0.056 -1.134l-0.04 -0.992 -0.01 -0.3 -0.032 -0.914 -0.02 -0.778c0 -0.31 -0.016 -0.62 -0.02 -0.93 -0.006 -0.31 -0.014 -0.65 -0.016 -0.978 -0.004 -0.328 0 -0.652 -0.01 -0.978 -0.008 -0.328 0 -0.654 0 -0.98 0 -83.706 67.86 -151.568 151.576 -151.568 83.712 0 151.572 67.86 151.572 151.568v1.958c0 0.326 -0.01 0.654 -0.016 0.978 0 0.27 -0.012 0.536 -0.02 0.81 0 0.24 -0.01 0.482 -0.018 0.714 0 0.306 -0.018 0.612 -0.028 0.918v0.024l-0.042 1.062c-0.014 0.31 -0.026 0.622 -0.042 0.932l-0.01 0.22 -0.054 0.992a161.446 161.446 0 0 1 -0.482 6.368v0.026c-0.034 0.348 -0.068 0.696 -0.106 1.044l-0.09 0.822 -0.178 1.608 -0.102 0.814 -0.126 0.958c-0.046 0.348 -0.092 0.698 -0.144 1.044 -0.052 0.39 -0.11 0.778 -0.168 1.166l-0.138 0.918 -0.164 1.04c-0.056 0.346 -0.116 0.69 -0.18 1.034 -0.066 0.346 -0.118 0.69 -0.178 1.034 -0.12 0.688 -0.246 1.376 -0.378 2.062 -0.202 1.026 -0.408 2.05 -0.62 3.074l-0.22 1.014c-0.072 0.338 -0.15 0.678 -0.226 1.016 -4.266 -4.146 -9.916 -6.404 -16.146 -6.404 -5.654 0 -11.468 1.87 -17.286 5.56 -3.86 2.452 -8.126 6.796 -12.52 12.256 -4.07 -5.644 -9.766 -9.394 -16.278 -10.42a24.1 24.1 0 0 0 -3.756 -0.296c-14.878 0 -23.828 12.906 -27.214 24.516 -1.68 3.922 -9.74 21.786 -21.864 33.902 -18.458 18.396 -23.114 37.354 -14.118 57.66Zm156.482 -40.818 -0.06 0.178a10.832 10.832 0 0 1 -0.526 1.174c-0.15 0.28 -0.312 0.552 -0.488 0.816 -0.334 0.498 -0.7 0.974 -1.098 1.422 -0.092 0.104 -0.18 0.208 -0.284 0.31a15.706 15.706 0 0 1 -0.44 0.454c-2.692 2.668 -6.796 5.008 -11.436 7.154 -0.526 0.238 -1.06 0.476 -1.598 0.716l-0.536 0.238c-0.358 0.158 -0.716 0.314 -1.092 0.468 -0.358 0.156 -0.73 0.312 -1.102 0.464l-1.116 0.46c-2.61 1.074 -5.284 2.098 -7.892 3.108l-1.116 0.434 -1.102 0.432c-0.734 0.286 -1.458 0.572 -2.17 0.858l-1.062 0.428 -1.044 0.426 -0.512 0.216c-0.342 0.142 -0.676 0.284 -1.01 0.426 -7.674 3.294 -13.196 6.644 -12.036 10.8 0.032 0.118 0.068 0.23 0.108 0.34 0.104 0.308 0.246 0.598 0.424 0.872 0.104 0.162 0.224 0.316 0.358 0.456 1.364 1.418 3.846 1.194 6.976 0.068 0.44 -0.162 0.878 -0.33 1.312 -0.506l0.272 -0.112c0.716 -0.304 1.474 -0.644 2.248 -1.012 0.194 -0.092 0.39 -0.18 0.586 -0.282 3.828 -1.872 8.166 -4.392 12.47 -6.686a111.624 111.624 0 0 1 5.236 -2.65c4.076 -1.918 7.908 -3.278 10.988 -3.278 1.446 0 2.722 0.296 3.786 0.976l0.178 0.118c0.668 0.47 1.228 1.074 1.646 1.774 0.082 0.134 0.162 0.276 0.24 0.422 1.522 2.89 0.248 5.882 -2.734 8.816 -2.862 2.818 -7.314 5.58 -12.374 8.136 -0.376 0.19 -0.752 0.38 -1.134 0.566 -15.06 7.396 -34.782 12.966 -35.056 13.036 -5.256 1.362 -12.772 3.15 -21.24 4.488l-1.252 0.196 -0.206 0.03c-0.948 0.144 -1.898 0.278 -2.85 0.402 -0.966 0.13 -1.942 0.248 -2.924 0.358l-0.18 0.02a137.12 137.12 0 0 1 -10.716 0.812h-0.052c-1.296 0.046 -2.59 0.07 -3.886 0.07h-1.494a92.76 92.76 0 0 1 -5.918 -0.268c-0.046 0 -0.096 0 -0.142 -0.012a79.332 79.332 0 0 1 -4.298 -0.462 49.282 49.282 0 0 1 -1.43 -0.214 115.306 115.306 0 0 1 -1.45 -0.242l-0.658 -0.124 -0.05 -0.01a52.214 52.214 0 0 1 -2.072 -0.438c-0.4 -0.09 -0.798 -0.178 -1.192 -0.286l-0.238 -0.06c-0.196 -0.048 -0.386 -0.1 -0.58 -0.152l-0.106 -0.028 -0.616 -0.18c-0.224 -0.062 -0.448 -0.13 -0.672 -0.196l-0.078 -0.022 -0.582 -0.178c-0.22 -0.068 -0.44 -0.14 -0.658 -0.212l-0.536 -0.178 -0.394 -0.138c-0.38 -0.134 -0.758 -0.272 -1.132 -0.416l-0.356 -0.14 -0.294 -0.116a46.486 46.486 0 0 1 -1.69 -0.716l-0.37 -0.18 -0.062 -0.028c-0.132 -0.062 -0.262 -0.124 -0.394 -0.178a34.284 34.284 0 0 1 -0.768 -0.382l-0.078 -0.038 -0.368 -0.194a31.886 31.886 0 0 1 -1.922 -1.092l-0.344 -0.212a17.094 17.094 0 0 1 -0.512 -0.328l-0.448 -0.296 -0.482 -0.332 -0.288 -0.206c-0.304 -0.216 -0.602 -0.44 -0.894 -0.67l-0.466 -0.358a30.346 30.346 0 0 1 -0.552 -0.456c-0.154 -0.126 -0.304 -0.258 -0.454 -0.39l-0.012 -0.01c-0.162 -0.142 -0.32 -0.284 -0.478 -0.43a23.7 23.7 0 0 1 -0.464 -0.432l-0.018 -0.018a17.138 17.138 0 0 1 -0.47 -0.464c-0.154 -0.156 -0.312 -0.312 -0.462 -0.472 -0.15 -0.158 -0.304 -0.32 -0.452 -0.486 -0.148 -0.164 -0.284 -0.314 -0.424 -0.476l-0.046 -0.054a18.68 18.68 0 0 1 -0.402 -0.476 24.884 24.884 0 0 1 -0.832 -1.05c-0.27 -0.36 -0.534 -0.728 -0.792 -1.102l-0.246 -0.368c-0.328 -0.48 -0.648 -0.964 -0.958 -1.456a37.2 37.2 0 0 1 -0.678 -1.072c-0.142 -0.226 -0.278 -0.454 -0.414 -0.678l-0.056 -0.092c-0.13 -0.22 -0.258 -0.436 -0.382 -0.654a6.34 6.34 0 0 1 -0.204 -0.358c-0.066 -0.124 -0.142 -0.25 -0.212 -0.376l-0.114 -0.198 -0.07 -0.128c-0.134 -0.24 -0.266 -0.482 -0.394 -0.726 -0.06 -0.108 -0.118 -0.216 -0.18 -0.32l-0.178 -0.346 -0.18 -0.342c-0.45 -0.9 -0.876 -1.812 -1.276 -2.736l-0.142 -0.338c-0.092 -0.226 -0.178 -0.45 -0.27 -0.672 -0.044 -0.108 -0.088 -0.214 -0.126 -0.322a33.462 33.462 0 0 1 -1.552 -5.278c-0.022 -0.11 -0.044 -0.22 -0.062 -0.326a23.08 23.08 0 0 1 -0.254 -1.612c-0.016 -0.106 -0.028 -0.212 -0.04 -0.318l-0.034 -0.324a22.674 22.674 0 0 1 -0.098 -1.276c0 -0.108 -0.01 -0.216 -0.014 -0.32a16.872 16.872 0 0 1 -0.016 -0.636c-0.112 -8.546 4.212 -16.762 13.458 -26.004 16.47 -16.454 26.058 -40.532 26.058 -40.532s0.258 -1.01 0.794 -2.464c0.074 -0.202 0.152 -0.41 0.24 -0.628 0.312 -0.814 0.664 -1.614 1.054 -2.394l0.078 -0.15c0.332 -0.664 0.696 -1.312 1.088 -1.942 0.092 -0.146 0.18 -0.29 0.282 -0.436 0.294 -0.434 0.604 -0.858 0.93 -1.268 0.178 -0.222 0.372 -0.442 0.566 -0.656 0.078 -0.084 0.154 -0.168 0.236 -0.248 0.954 -0.986 2.044 -1.79 3.278 -2.218l0.156 -0.052c0.104 -0.034 0.208 -0.066 0.314 -0.096 0.122 -0.032 0.244 -0.06 0.37 -0.086l0.058 -0.012c0.26 -0.052 0.524 -0.086 0.79 -0.104h0.022c0.138 0 0.278 -0.014 0.42 -0.014 0.178 0 0.344 0 0.518 0.018 0.18 0.016 0.358 0.036 0.538 0.064 1.484 0.236 2.896 1.12 4.112 2.484 0.462 0.52 0.878 1.08 1.242 1.672 0.24 0.384 0.466 0.79 0.68 1.218 0.086 0.178 0.168 0.342 0.248 0.518a15.6 15.6 0 0 1 0.56 1.382c0.39 1.1 0.684 2.232 0.878 3.384 0.168 1.01 0.268 2.03 0.3 3.052 0.016 0.546 0.016 1.1 0 1.658a23.872 23.872 0 0 1 -1.574 7.584c-0.084 0.222 -0.178 0.446 -0.268 0.67a18.528 18.528 0 0 1 -0.604 1.33c-0.162 0.33 -0.332 0.662 -0.516 0.992 -0.12 0.22 -0.246 0.44 -0.372 0.66 -0.322 0.548 -0.67 1.092 -1.044 1.634l-0.226 0.324a27.256 27.256 0 0 1 -2.944 3.456 30.85 30.85 0 0 1 -3.398 2.94c-1.204 0.892 -2.334 1.88 -3.378 2.954 -3.006 3.154 -3.706 5.938 -3.03 8.048 0.108 0.332 0.25 0.654 0.422 0.958 0.202 0.348 0.442 0.668 0.714 0.96l0.106 0.11 0.108 0.108c0.108 0.104 0.222 0.206 0.344 0.306l0.12 0.096c0.29 0.224 0.598 0.424 0.92 0.6 0.094 0.05 0.178 0.1 0.284 0.148 0.348 0.17 0.706 0.316 1.074 0.434 0.102 0.034 0.204 0.064 0.308 0.096l0.13 0.034 0.18 0.048 0.154 0.038 0.168 0.036 0.166 0.034 0.158 0.026c0.116 0.02 0.236 0.04 0.356 0.054l0.114 0.018 0.208 0.02 0.128 0.014 0.21 0.014h0.124l0.22 0.012h0.692l0.198 -0.012 0.228 -0.014 0.278 -0.026 0.26 -0.03c0.06 0 0.12 -0.016 0.18 -0.028 0.8 -0.116 1.584 -0.328 2.334 -0.632l0.318 -0.134a9.638 9.638 0 0 0 1.544 -0.842c0.458 -0.3 0.89 -0.636 1.294 -1.006 0.096 -0.086 0.19 -0.178 0.282 -0.266 0.046 -0.044 0.09 -0.086 0.134 -0.134 0.088 -0.09 0.178 -0.178 0.266 -0.276 0.64 -0.704 1.194 -1.48 1.65 -2.314a457.85 457.85 0 0 1 12.302 -21.028l0.588 -0.942 0.594 -0.942c0.296 -0.478 0.596 -0.948 0.894 -1.416l0.3 -0.468c0.996 -1.56 2.008 -3.11 3.038 -4.648l0.61 -0.912c1.224 -1.814 2.444 -3.578 3.654 -5.254l0.602 -0.83a112.448 112.448 0 0 1 4.108 -5.322l0.564 -0.676c0.094 -0.112 0.18 -0.224 0.282 -0.332 0.186 -0.22 0.372 -0.434 0.554 -0.642 0.092 -0.106 0.178 -0.21 0.276 -0.314l0.536 -0.604 0.268 -0.294c0.27 -0.29 0.534 -0.568 0.794 -0.834 0.18 -0.18 0.346 -0.358 0.518 -0.526a21 21 0 0 1 3.338 -2.772l0.28 -0.18c0.268 -0.18 0.546 -0.348 0.83 -0.5 4.728 -2.684 8.642 -2.882 10.896 -0.628 1.364 1.364 2.12 3.626 2.078 6.774 0 0.138 0 0.278 -0.01 0.422v0.154c0 0.144 -0.012 0.288 -0.024 0.434 0 0.18 -0.02 0.358 -0.038 0.538 -0.018 0.178 -0.028 0.314 -0.046 0.474 0 0.044 -0.008 0.09 -0.016 0.138 -0.012 0.138 -0.03 0.28 -0.05 0.422 0 0.042 0 0.086 -0.016 0.13a10.708 10.708 0 0 1 -0.082 0.566c-0.022 0.18 -0.052 0.348 -0.084 0.524l-0.052 0.298a8.014 8.014 0 0 1 -0.2 0.84 12.32 12.32 0 0 1 -0.566 1.516 21.98 21.98 0 0 1 -1.028 1.974c-0.208 0.356 -0.422 0.706 -0.644 1.052 -0.228 0.358 -0.468 0.72 -0.716 1.086 -0.632 0.904 -1.288 1.79 -1.97 2.656l-0.312 0.394a101.12 101.12 0 0 1 -3.444 4.07l-0.374 0.42c-0.504 0.562 -1.016 1.128 -1.54 1.696l-0.394 0.428c-0.262 0.286 -0.536 0.572 -0.8 0.86 -0.262 0.286 -0.536 0.576 -0.812 0.866l-0.822 0.866 -0.834 0.872 -0.84 0.872c-0.564 0.584 -1.13 1.168 -1.7 1.752 -8.11 8.318 -16.654 16.608 -19.546 21.776a10.73 10.73 0 0 0 -0.524 1.038c-0.412 0.94 -0.584 1.744 -0.466 2.394a1.828 1.828 0 0 0 0.222 0.606c0.162 0.282 0.36 0.542 0.59 0.774 0.106 0.104 0.218 0.2 0.336 0.288 0.596 0.424 1.314 0.642 2.046 0.622h0.228l0.234 -0.018 0.234 -0.026 0.194 -0.028c0.026 -0.004 0.054 -0.008 0.08 -0.016l0.178 -0.034 0.046 -0.01 0.198 -0.042 0.07 -0.018 0.208 -0.056c0.07 -0.02 0.166 -0.046 0.25 -0.074 0.352 -0.106 0.696 -0.232 1.034 -0.376 0.178 -0.072 0.352 -0.15 0.524 -0.234 0.09 -0.04 0.18 -0.082 0.264 -0.126l0.268 -0.132c0.64 -0.332 1.264 -0.694 1.872 -1.082l0.266 -0.18c0.09 -0.056 0.18 -0.114 0.266 -0.178l0.266 -0.178 0.142 -0.098 0.384 -0.27c0.358 -0.246 0.692 -0.5 1.03 -0.758l0.03 -0.024 0.538 -0.416c0.734 -0.58 1.43 -1.164 2.062 -1.714l0.42 -0.368 0.038 -0.036 0.22 -0.194c0.516 -0.464 0.976 -0.896 1.358 -1.252l0.158 -0.154c0.138 -0.13 0.264 -0.252 0.378 -0.356l0.224 -0.222 0.08 -0.078 0.022 -0.022 0.234 -0.234 0.148 -0.154 0.018 -0.014 0.07 -0.064 0.088 -0.08 0.028 -0.026 0.074 -0.068 0.408 -0.358 0.228 -0.204c0.122 -0.106 0.24 -0.214 0.358 -0.324l0.272 -0.242c0.05 -0.04 0.098 -0.084 0.148 -0.128l0.286 -0.25 0.42 -0.37 0.224 -0.194c0.87 -0.756 1.928 -1.67 3.144 -2.7l0.498 -0.422 0.822 -0.69 0.842 -0.702c1.1 -0.914 2.284 -1.884 3.536 -2.89l0.822 -0.66c0.7 -0.558 1.418 -1.126 2.146 -1.698 0.294 -0.23 0.592 -0.46 0.896 -0.688a201.572 201.572 0 0 1 7.524 -5.576l0.768 -0.536c0.538 -0.37 1.074 -0.742 1.61 -1.104l0.486 -0.328c0.958 -0.65 1.93 -1.284 2.91 -1.902l0.486 -0.306 0.482 -0.3c0.484 -0.3 0.964 -0.594 1.442 -0.88l0.478 -0.286 0.956 -0.556 0.938 -0.538 0.19 -0.104 0.742 -0.408c0.31 -0.168 0.618 -0.33 0.926 -0.488l0.458 -0.236 0.446 -0.224c0.156 -0.074 0.31 -0.152 0.462 -0.226a42.892 42.892 0 0 1 3.908 -1.69l0.82 -0.288c0.246 -0.082 0.486 -0.16 0.716 -0.23l0.08 -0.024c0.124 -0.04 0.248 -0.076 0.37 -0.108l0.036 -0.01c0.256 -0.074 0.51 -0.138 0.76 -0.198h0.018a16.312 16.312 0 0 1 2.154 -0.366c0.334 -0.034 0.668 -0.052 1.004 -0.05h0.168c0.224 0 0.44 0.014 0.654 0.036 0.098 0 0.196 0.02 0.292 0.032h0.04c0.096 0.012 0.192 0.026 0.288 0.048 0.094 0.018 0.19 0.034 0.282 0.056h0.03c0.094 0.02 0.178 0.044 0.276 0.072 0.508 0.142 0.992 0.362 1.436 0.65 0.218 0.142 0.422 0.302 0.61 0.48l0.054 0.052a1.61 1.61 0 0 1 0.102 0.1l0.098 0.106c0.804 0.842 1.468 1.808 1.968 2.86l0.076 0.18a6.618 6.618 0 0 1 0.084 5.106 9.352 9.352 0 0 1 -0.678 1.43 16.282 16.282 0 0 1 -2.198 2.904l-0.178 0.19c-0.266 0.28 -0.542 0.56 -0.832 0.84 -0.128 0.126 -0.262 0.25 -0.396 0.376l-0.41 0.378 -0.214 0.19a45.364 45.364 0 0 1 -2.57 2.114c-1.172 0.896 -2.366 1.76 -3.582 2.594a119.12 119.12 0 0 1 -2.22 1.486 199.34 199.34 0 0 1 -5.572 3.526c-3.936 2.42 -8.298 5.008 -12.948 7.822l-1.204 0.73c-1.318 0.804 -2.562 1.572 -3.734 2.304l-0.59 0.37 -1.116 0.716c-0.74 0.474 -1.478 0.952 -2.216 1.43l-0.594 0.392c-0.29 0.188 -0.578 0.38 -0.866 0.572l-0.282 0.18 -0.864 0.582 -0.458 0.314 -0.536 0.372 -0.498 0.346c-0.834 0.59 -1.61 1.152 -2.324 1.686l-0.268 0.204c-0.42 0.318 -0.836 0.642 -1.246 0.972 -0.618 0.498 -1.182 0.974 -1.688 1.432l-0.248 0.226c-0.142 0.13 -0.282 0.26 -0.416 0.388 -0.092 0.09 -0.178 0.18 -0.274 0.266l-0.128 0.128c-0.286 0.288 -0.566 0.582 -0.836 0.884l-0.132 0.152c-0.294 0.34 -0.55 0.666 -0.774 0.984l-0.1 0.142c-0.176 0.256 -0.338 0.52 -0.484 0.792 -0.038 0.068 -0.072 0.136 -0.106 0.204l-0.098 0.204 -0.066 0.148 -0.042 0.1 -0.034 0.09 -0.046 0.122a5.1 5.1 0 0 0 -0.26 1.046l-0.016 0.124 -0.012 0.116v0.63c0 0.052 0 0.104 0.014 0.16l0.01 0.096c0 0.052 0.012 0.102 0.02 0.158 0.008 0.052 0.022 0.146 0.038 0.22v0.01c0.014 0.07 0.028 0.138 0.046 0.208 0.018 0.07 0.036 0.15 0.058 0.222 0.038 0.142 0.086 0.282 0.136 0.422 0.032 0.084 0.062 0.166 0.096 0.248 0 0.016 0.012 0.034 0.02 0.05l0.072 0.162 0.1 0.222c0.108 0.23 0.226 0.454 0.354 0.672l0.132 0.228 0.136 0.228a0.852 0.852 0 0 0 0.082 0.108l0.044 0.046 0.05 0.046 0.052 0.04a0.974 0.974 0 0 0 0.244 0.126c0.046 0.016 0.094 0.028 0.142 0.04 1.154 0.26 3.526 -0.694 6.678 -2.358 0.178 -0.096 0.374 -0.196 0.564 -0.3l0.96 -0.524 0.468 -0.26c0.334 -0.178 0.674 -0.38 1.022 -0.578l0.634 -0.358c4.166 -2.398 9.142 -5.478 14.286 -8.486 0.482 -0.282 0.966 -0.564 1.45 -0.842l0.972 -0.622c1.128 -0.646 2.262 -1.284 3.4 -1.914a160.242 160.242 0 0 1 4.336 -2.3l0.952 -0.482c0.632 -0.312 1.258 -0.616 1.876 -0.912a81.798 81.798 0 0 1 3.63 -1.618l0.67 -0.272 0.08 -0.032c3.55 -1.406 6.768 -2.274 9.372 -2.274 0.562 -0.006 1.126 0.042 1.68 0.138h0.018c0.178 0.032 0.34 0.068 0.506 0.108h0.03c0.426 0.108 0.84 0.262 1.232 0.46 0.55 0.284 1.044 0.662 1.462 1.118 0.192 0.212 0.362 0.442 0.512 0.686 0.28 0.43 0.5 0.896 0.658 1.384 0.064 0.19 0.12 0.376 0.178 0.574a7.86 7.86 0 0 1 -0.12 4.61Z" fill="#FF9D00"/><path fill-rule="evenodd" clip-rule="evenodd" d="M406.42 247.37v-0.982c0 -83.708 -67.836 -151.566 -151.55 -151.566 -83.712 0 -151.574 67.862 -151.574 151.566v0.328a14.26 14.26 0 0 0 0 0.654c0.01 0.326 0.014 0.652 0.01 0.978l0.01 0.72 0.006 0.258c0 0.12 0.004 0.238 0.008 0.358 0.006 0.19 0.01 0.382 0.01 0.572l0.022 0.778 0.032 0.914 0.01 0.3 0.04 0.946v0.046c0.016 0.37 0.036 0.738 0.054 1.106l0.002 0.028c0.02 0.376 0.04 0.754 0.064 1.132 0.02 0.348 0.04 0.696 0.066 1.044l0.004 0.062c0.018 0.298 0.038 0.598 0.06 0.896l0.006 0.08 0.066 0.864 0.006 0.056c0.012 0.168 0.024 0.336 0.04 0.498 0.12 1.442 0.26 2.884 0.42 4.322l0.008 0.09 0.122 1.058 0.136 1.11 0.1 0.754 0.046 0.354c0.106 0.816 0.222 1.63 0.346 2.442l0.008 0.054 0.118 0.768c0.57 3.658 1.28 7.294 2.12 10.9l0.01 0.044 0.064 0.27 0.182 0.77 0.112 -0.134c4.4 -5.26 10.712 -8.16 17.774 -8.16 5.66 0 11.466 1.872 17.286 5.562 3.86 2.452 8.128 6.794 12.52 12.256 4.064 -5.644 9.76 -9.396 16.276 -10.42 1.242 -0.196 2.5 -0.294 3.756 -0.296 14.872 0 23.83 12.906 27.214 24.516 1.672 3.922 9.73 21.786 21.882 33.87 18.472 18.454 23.094 37.496 13.952 57.886h0.032c0.622 0.07 1.248 0.134 1.878 0.192 0.374 0.036 0.746 0.072 1.122 0.104l0.132 0.012 0.826 0.07 0.76 0.06c0.724 0.056 1.45 0.108 2.178 0.154l0.578 0.034 0.458 0.028 0.284 0.016 0.894 0.046 0.244 0.01 0.938 0.042 1.044 0.04 0.838 0.024 0.14 0.004c0.178 0.008 0.356 0.014 0.534 0.014l0.192 0.006c1.18 0.028 2.358 0.042 3.538 0.04h1.252l0.894 -0.01c0.22 -0.01 0.438 -0.01 0.66 -0.01h0.348l0.302 -0.008c0.118 -0.004 0.236 -0.008 0.356 -0.008h0.358l0.702 -0.018 1.056 -0.036 1.162 -0.052c0.336 -0.012 0.668 -0.03 1 -0.046l0.358 -0.022 0.532 -0.028 0.312 -0.018 0.236 -0.016 1.074 -0.07 1.072 -0.078 0.974 -0.078 0.684 -0.058 0.752 -0.068a124.694 124.694 0 0 0 3.76 -0.394l0.854 -0.102c-8.998 -20.304 -4.34 -39.264 14.054 -57.644 12.126 -12.116 20.184 -29.98 21.864 -33.904 3.386 -11.608 12.338 -24.514 27.214 -24.514 1.258 0 2.516 0.1 3.758 0.296 6.51 1.024 12.206 4.776 16.276 10.42 4.394 -5.46 8.66 -9.806 12.522 -12.258 5.818 -3.688 11.63 -5.56 17.284 -5.56 6.232 0 11.88 2.26 16.146 6.406 0.078 -0.338 0.154 -0.676 0.228 -1.016l0.218 -1.012c0.078 -0.37 0.156 -0.74 0.23 -1.11 0.132 -0.654 0.264 -1.308 0.39 -1.968 0.132 -0.684 0.258 -1.372 0.378 -2.06l0.062 -0.372c0.038 -0.22 0.074 -0.44 0.116 -0.662 0.068 -0.344 0.124 -0.688 0.18 -1.036l0.022 -0.132 0.142 -0.906 0.14 -0.918v-0.008c0.102 -0.678 0.198 -1.356 0.288 -2.034l0.022 -0.168 0.126 -0.956 0.102 -0.816 0.18 -1.608 0.07 -0.646 0.018 -0.176c0.038 -0.348 0.074 -0.696 0.106 -1.044v-0.028c0.026 -0.276 0.054 -0.554 0.078 -0.832 0.142 -1.576 0.262 -3.16 0.358 -4.75 0.018 -0.26 0.032 -0.522 0.048 -0.784v-0.012l0.052 -0.982 0.012 -0.22c0.032 -0.664 0.06 -1.328 0.082 -1.992v-0.024l0.01 -0.26c0.01 -0.218 0.018 -0.438 0.018 -0.658l0.004 -0.088c0.008 -0.206 0.016 -0.418 0.016 -0.628l0.006 -0.18c0.006 -0.21 0.012 -0.418 0.012 -0.628l0.004 -0.178c0.006 -0.266 0.012 -0.534 0.012 -0.8v-0.978Zm-189.144 151.412c12.004 -17.602 11.152 -30.814 -5.316 -47.274 -16.472 -16.462 -26.058 -40.534 -26.058 -40.534s-3.578 -13.982 -11.738 -12.698c-8.16 1.284 -14.146 22.178 2.94 34.968 17.084 12.79 -3.4 21.462 -9.976 9.46 -6.576 -12.004 -24.53 -42.858 -33.838 -48.76 -9.308 -5.902 -15.854 -2.594 -13.66 9.57 1.09 6.038 11.226 16.344 20.696 25.972 9.608 9.768 18.53 18.84 16.622 22.05 -3.786 6.374 -17.12 -7.49 -17.12 -7.49s-41.752 -37.996 -50.84 -28.094c-8.38 9.126 4.542 16.884 24.454 28.842 1.692 1.016 3.436 2.064 5.222 3.144 22.782 13.792 24.554 17.43 21.32 22.648 -1.194 1.928 -8.82 -2.65 -18.2 -8.28 -15.99 -9.602 -37.074 -22.26 -40.052 -10.93 -2.576 9.806 12.936 15.814 27.004 21.264 11.72 4.54 22.44 8.692 20.862 14.328 -1.634 5.844 -10.492 0.97 -20.174 -4.358 -10.87 -5.982 -22.78 -12.534 -26.678 -5.14 -7.366 13.98 50.82 30.438 51.3 30.56 18.8 4.876 66.544 15.208 83.23 -9.248Zm77.33 0c-12.004 -17.602 -11.152 -30.814 5.318 -47.274 16.47 -16.462 26.056 -40.534 26.056 -40.534s3.578 -13.982 11.738 -12.698c8.16 1.284 14.146 22.178 -2.938 34.968 -17.086 12.79 3.398 21.462 9.974 9.46 6.578 -12.004 24.52 -42.858 33.828 -48.76 9.308 -5.902 15.858 -2.594 13.662 9.57 -1.088 6.038 -11.226 16.344 -20.696 25.974 -9.608 9.768 -18.53 18.838 -16.624 22.048 3.786 6.374 17.13 -7.498 17.13 -7.498s41.75 -37.994 50.842 -28.092c8.378 9.124 -4.544 16.884 -24.458 28.842 -1.742 1.046 -3.482 2.094 -5.22 3.144 -22.782 13.792 -24.554 17.43 -21.322 22.646 1.196 1.93 8.822 -2.65 18.2 -8.28 15.992 -9.6 37.076 -22.26 40.054 -10.928 2.578 9.806 -12.936 15.814 -27.004 21.264 -11.72 4.54 -22.44 8.692 -20.864 14.328 1.632 5.842 10.488 0.968 20.168 -4.36 10.87 -5.982 22.782 -12.538 26.678 -5.138 7.368 13.988 -50.828 30.43 -51.298 30.55 -18.8 4.892 -66.544 15.224 -83.224 -9.232Z" fill="#FFD21E"/><path fill-rule="evenodd" clip-rule="evenodd" d="M304.094 205.134c2.364 0.836 4.122 3.38 5.794 5.802 2.26 3.272 4.364 6.318 7.592 4.602a21.818 21.818 0 0 0 8.494 -30.428 21.824 21.824 0 0 0 -15.484 -10.396 21.808 21.808 0 0 0 -23.378 13.178 21.818 21.818 0 0 0 0.872 18.628c1.496 2.814 4.816 1.486 8.32 0.084 2.746 -1.098 5.608 -2.242 7.79 -1.47Zm-102.75 0c-2.364 0.836 -4.122 3.382 -5.794 5.802 -2.26 3.274 -4.366 6.318 -7.592 4.602a21.806 21.806 0 0 1 16.526 -40.136 21.818 21.818 0 0 1 15.414 18.696 21.812 21.812 0 0 1 -2.442 12.422c-1.498 2.814 -4.818 1.486 -8.322 0.086 -2.748 -1.1 -5.606 -2.244 -7.79 -1.472Zm86.854 93.502c16.286 -12.83 22.268 -33.778 22.268 -46.682 0 -10.2 -6.862 -6.99 -17.848 -1.55l-0.62 0.306c-10.084 4.994 -23.508 11.644 -38.244 11.644 -14.738 0 -28.162 -6.65 -38.244 -11.646 -11.342 -5.618 -18.456 -9.142 -18.456 1.248 0 13.312 6.364 35.17 23.832 47.868a37.936 37.936 0 0 1 23.15 -19.572c1.744 -0.52 3.54 2.482 5.378 5.556 1.774 2.964 3.588 5.996 5.432 5.996 1.966 0 3.896 -2.988 5.782 -5.904 1.97 -3.05 3.892 -6.02 5.75 -5.426a37.934 37.934 0 0 1 21.82 18.162Z" fill="#32343D"/><path d="M288.194 298.634c-8.482 6.684 -19.756 11.166 -34.438 11.166 -13.794 0 -24.582 -3.956 -32.87 -9.978a37.932 37.932 0 0 1 23.15 -19.572c3.424 -1.022 7.054 11.552 10.81 11.552 4.02 0 7.894 -12.492 11.532 -11.33a37.948 37.948 0 0 1 21.816 18.162Z" fill="#FF323D"/><path fill-rule="evenodd" clip-rule="evenodd" d="M162.4 223.28a14.156 14.156 0 0 1 -13.3 1.31 14.124 14.124 0 0 1 -7.674 -7.674 14.164 14.164 0 0 1 1.314 -13.3 14.174 14.174 0 1 1 19.66 19.664Zm202.826 0a14.16 14.16 0 0 1 -13.302 1.31 14.128 14.128 0 0 1 -7.674 -7.674 14.204 14.204 0 0 1 -1.008 -6.814 14.206 14.206 0 0 1 6.822 -10.77 14.166 14.166 0 0 1 17.312 2.14 14.158 14.158 0 0 1 3.072 15.448 14.178 14.178 0 0 1 -5.222 6.36Z" fill="#FFAD03"/></svg>